<?xml version="1.0" encoding="UTF-8"?>
<svg width="20px" height="20px" viewBox="0 0 20 20" version="1.1" xmlns="http://www.w3.org/2000/svg" xmlns:xlink="http://www.w3.org/1999/xlink">
    <title>instagram [#167] copy</title>
    <g id="Symbols" stroke="none" stroke-width="1" fill="none" fill-rule="evenodd">
        <g id="Footer" transform="translate(-439.000000, -169.000000)" fill="#FFFFFF">
            <path d="M444.869652,169.122727 C443.241769,169.196177 441.830805,169.5942 440.691486,170.728712 C439.548187,171.86918 439.155147,173.285583 439.081514,174.896531 C439.035742,175.902009 438.768077,183.49818 439.544207,185.490276 C440.067597,186.834222 441.098457,187.867492 442.454694,188.392563 C443.087538,188.638722 443.809936,188.805474 444.869652,188.85411 C453.730467,189.25511 457.015089,189.036744 458.400182,185.490276 C458.645956,184.858999 458.815113,184.137398 458.86188,183.080306 C459.26686,174.196766 458.796207,172.271172 457.251908,170.728712 C456.027016,169.506853 454.5862,168.675076 444.869652,169.122727 M444.951245,187.067477 C443.981083,187.023803 443.454707,186.862014 443.103459,186.726031 C442.219865,186.3826 441.556174,185.721546 441.214876,184.843118 C440.623823,183.329442 440.819846,176.140227 440.872583,174.97693 C440.924325,173.837455 441.155174,172.796244 441.959165,171.992259 C442.954203,170.999685 444.239792,170.513323 452.993144,170.908368 C454.135448,170.959982 455.179243,171.190259 455.985224,171.992259 C456.980262,172.984833 457.473801,174.280143 457.071806,182.999907 C457.028024,183.967667 456.865833,184.492739 456.729513,184.843118 C455.829003,187.150853 453.757333,187.471454 444.951245,187.067477 M453.089663,173.689561 C453.089663,174.346645 453.623998,174.88065 454.283709,174.88065 C454.943419,174.88065 455.47875,174.346645 455.47875,173.689561 C455.47875,173.032477 454.943419,172.498472 454.283709,172.498472 C453.623998,172.498472 453.089663,173.032477 453.089663,173.689561 M443.862673,178.987922 C443.862673,181.802863 446.150266,184.084791 448.972194,184.084791 C451.794123,184.084791 454.081716,181.802863 454.081716,178.987922 C454.081716,176.172982 451.794123,173.892046 448.972194,173.892046 C446.150266,173.892046 443.862673,176.172982 443.862673,178.987922 M445.655732,178.987922 C445.655732,177.161586 447.140329,175.679672 448.972194,175.679672 C450.80406,175.679672 452.288657,177.161586 452.288657,178.987922 C452.288657,180.815252 450.80406,182.297165 448.972194,182.297165 C447.140329,182.297165 445.655732,180.815252 445.655732,178.987922" id="instagram-[#167]-copy"></path>
        </g>
    </g>
</svg>