<?xml version="1.0" encoding="UTF-8"?>
<svg width="20px" height="20px" viewBox="0 0 20 20" version="1.1" xmlns="http://www.w3.org/2000/svg" xmlns:xlink="http://www.w3.org/1999/xlink">
    <title>linkedin [#161] copy</title>
    <g id="Symbols" stroke="none" stroke-width="1" fill="none" fill-rule="evenodd">
        <g id="Footer" transform="translate(-524.000000, -166.000000)" fill="#FFFFFF">
            <path d="M544,186 L540,186 L540,179.001 C540,177.081 539.153,176.01 537.634,176.01 C535.981,176.01 535,177.126 535,179.001 L535,186 L531,186 L531,173 L535,173 L535,174.462 C535,174.462 536.255,172.26 539.083,172.26 C541.912,172.26 544,173.986 544,177.558 L544,186 L544,186 Z M526.442,170.921 C525.093,170.921 524,169.819 524,168.46 C524,167.102 525.093,166 526.442,166 C527.79,166 528.883,167.102 528.883,168.46 C528.884,169.819 527.79,170.921 526.442,170.921 L526.442,170.921 Z M524,186 L529,186 L529,173 L524,173 L524,186 Z" id="linkedin-[#161]-copy"></path>
        </g>
    </g>
</svg>