<?xml version="1.0" encoding="UTF-8"?>
<svg width="20px" height="16px" viewBox="0 0 20 16" version="1.1" xmlns="http://www.w3.org/2000/svg" xmlns:xlink="http://www.w3.org/1999/xlink">
    <title>twitter [#154] copy</title>
    <g id="Symbols" stroke="none" stroke-width="1" fill="none" fill-rule="evenodd">
        <g id="Footer" transform="translate(-396.000000, -171.000000)" fill="#FFFFFF">
            <path d="M402.29,187 C409.837,187 413.965,180.843653 413.965,175.505461 C413.965,175.330213 413.965,175.155949 413.953,174.982669 C414.756,174.411634 415.449,173.702763 416,172.8915 C415.252,173.218368 414.457,173.432999 413.644,173.527515 C414.5,173.022444 415.141,172.228903 415.448,171.292602 C414.642,171.763214 413.761,172.095005 412.842,172.273207 C411.288,170.646742 408.689,170.567979 407.036,172.097958 C405.971,173.08447 405.518,174.555377 405.849,175.958351 C402.55,175.794917 399.476,174.260999 397.392,171.737616 C396.303,173.583634 396.86,175.944568 398.663,177.129957 C398.01,177.111251 397.371,176.937971 396.8,176.624887 L396.8,176.676083 C396.801,178.598895 398.178,180.254896 400.092,180.635915 C399.488,180.798364 398.854,180.821993 398.24,180.704833 C398.777,182.350988 400.318,183.47829 402.073,183.51078 C400.62,184.635128 398.825,185.245545 396.977,185.243575 C396.651,185.242591 396.325,185.223885 396,185.185487 C397.877,186.370877 400.06,187 402.29,186.997046" id="twitter-[#154]-copy"></path>
        </g>
    </g>
</svg>