<svg xmlns="http://www.w3.org/2000/svg" xmlns:xlink="http://www.w3.org/1999/xlink" width="16px" height="16px" viewBox="0 0 16 16" version="1.1">
    <!-- Generator: Sketch 57.1 (83088) - https://sketch.com -->
    <title>ico-language</title>
    <desc>Created with Sketch.</desc>
    <g id="ico-language" stroke="none" stroke-width="1" fill="none" fill-rule="evenodd">
        <path d="M8.33333333,0.666666667 C12.5608632,0.666666667 16,4.10591521 16,8.33333333 C16,12.5607515 12.5608632,16 8.33333333,16 C4.10580346,16 0.666666667,12.5607515 0.666666667,8.33333333 C0.666666667,4.10591521 4.10580346,0.666666667 8.33333333,0.666666667 Z M8.91439322,1.08537542 C8.85075429,1.31945509 8.77272567,1.51644682 8.77272567,1.51644682 C8.77272567,1.51644682 8.77272567,1.51644682 8.77225277,1.51783546 L8.75995735,1.5539401 C8.7473917,1.59163605 8.72246308,1.64169464 8.7101001,1.70472389 C8.69733178,1.7673478 8.69733178,1.79247843 8.73502873,1.80524642 C8.772523,1.81781173 8.91074513,1.99352349 8.91074513,1.99352349 C8.91074513,1.99352349 8.8858165,2.0814807 8.83555391,2.15666993 C8.78529132,2.23206182 8.772523,2.21929384 8.69733178,2.30745372 C8.62173522,2.39541093 8.64666385,2.40797624 8.64666385,2.52086142 C8.64666385,2.63394926 8.57147263,2.8724876 8.50884706,3.02306872 C8.44581615,3.17385251 8.40832188,3.19878048 8.32036234,3.27417237 C8.23240281,3.3493616 8.29543372,3.33699895 8.24517113,3.39962286 C8.19490853,3.46224678 8.32036234,3.65072651 8.32036234,3.65072651 C8.32036234,3.65072651 8.20767685,3.96465674 8.14464594,4.06497661 C8.08161503,4.16549913 8.00642381,4.16549913 7.95656656,4.1904271 C7.90630397,4.21555773 7.81834444,4.26581899 7.71781925,4.30351494 C7.61729407,4.34141355 7.05244792,4.68006908 6.99265976,4.74289566 C6.93246625,4.80592491 6.85727503,4.88111414 6.85727503,4.88111414 C6.85727503,4.88111414 6.68844947,5.15714575 6.67568115,5.21997233 C6.66331818,5.28300158 6.57556131,5.25787095 6.53745903,5.21997233 C6.50604491,5.18889682 6.43100006,4.94825864 6.40685773,4.83994002 L6.3992369,4.79356226 L6.3992369,4.47942936 C6.3992369,4.47942936 6.42457086,4.36674685 6.43733918,4.25345634 C6.44970216,4.14057117 6.43733918,4.25345634 6.47503613,4.17826711 C6.5125304,4.10287522 6.55022734,4.09051257 6.57556131,4.02748332 C6.60048994,3.96506208 6.67568115,3.85197423 6.67568115,3.85197423 C6.67568115,3.85197423 6.71317543,3.33720162 6.72594375,3.09846062 L6.73104537,2.97320962 C6.7322139,2.89381823 6.72275167,2.92908219 6.71317543,2.87269026 C6.70060978,2.79729837 6.71317543,2.87269026 6.66331818,2.79729837 C6.61305558,2.72210914 6.57556131,2.79729837 6.53745903,2.79729837 C6.49996475,2.79729837 6.47483346,2.70974649 6.48760178,2.64894658 C6.49996475,2.58814666 6.55022734,2.40838158 6.60048994,2.33298968 C6.65075253,2.25759779 6.65075253,2.25759779 6.73871207,2.18240856 C6.82646893,2.10701666 6.90166015,2.03162477 6.96469106,1.93110224 C7.02731663,1.83078238 6.96469106,1.863209 6.96469106,1.863209 C6.96469106,1.863209 6.75148038,1.99413149 6.68844947,2.04439275 C6.62541856,2.09445135 6.46247048,2.24523514 6.37451094,2.33319235 C6.28675408,2.42074423 6.31208805,2.43351221 5.99814952,2.58409333 C5.68421099,2.73467446 5.83499877,2.58409333 5.75940221,2.52126675 C5.68421099,2.45864284 5.70913961,2.345555 5.70913961,2.345555 C5.70913961,2.345555 5.78473617,2.24523514 5.81290755,2.21990184 C5.84107892,2.19497387 5.86013006,2.11958198 5.82243312,2.06932072 C5.78473617,2.01926212 5.87229037,1.89360896 5.87229037,1.89360896 C5.87229037,1.89360896 6.04557471,1.627508 6.14265447,1.39869765 C5.66840259,1.54887344 5.21502591,1.74708116 4.78799655,1.98663283 C4.89723661,2.02088345 4.98600684,2.06121406 5.01883966,2.06932072 C5.06910225,2.08188603 5.18199041,2.10701666 5.30784956,2.14471261 C5.43289803,2.18240856 5.33277819,2.30785905 5.33277819,2.345555 C5.33277819,2.38325095 5.38263544,2.75980509 5.44566635,2.68461586 C5.5008184,2.61864795 5.49793666,2.85075479 5.49635447,2.90981225 L5.49592894,2.92315419 L5.458232,3.17425784 L5.50849459,3.33740428 C5.50849459,3.33740428 5.44546368,3.60087058 5.42053505,3.6387692 C5.39560643,3.67646515 5.18199041,3.81427829 5.11936484,3.90243816 C5.05633393,3.99039538 4.93088012,3.97783006 4.85568891,3.91480081 C4.78009235,3.8521769 4.64227556,3.77678501 4.64227556,3.77678501 C4.64227556,3.77678501 4.59201297,3.5633773 4.6169416,3.51311604 C4.64227556,3.46285478 4.80502097,3.41279618 4.80502097,3.41279618 C4.80502097,3.41279618 4.9683744,3.1365619 4.98073737,3.04860469 C4.99330302,2.96064748 4.88061753,2.8477623 4.84292059,2.78493572 C4.8048183,2.72231181 4.72962708,2.82263167 4.70469846,2.87289293 C4.67936449,2.92315419 4.49148779,3.2745777 4.45379084,3.31227365 C4.41589123,3.3499696 4.27807444,3.45049213 4.20247788,3.50055072 C4.12728667,3.55081199 4.20247788,3.50055072 4.25274047,3.55081199 C4.30300307,3.60107325 4.24058017,3.71416109 4.20247788,3.71416109 C4.16478094,3.71416109 3.98906454,3.73929173 3.98906454,3.73929173 C3.98906454,3.73929173 4.03892179,3.52588402 4.07702407,3.41299885 C4.11472102,3.299911 3.97649889,3.41299885 3.97649889,3.41299885 C3.97649889,3.41299885 3.90270983,3.47851386 3.82777683,3.54404778 L3.68789433,3.66389983 C3.62486342,3.71416109 3.43658137,3.8775102 3.29876458,4.02788866 C3.16054246,4.17867245 3.13845124,4.37951483 3.13845124,4.37951483 C3.13845124,4.37951483 3.28599626,4.6431838 3.3739558,4.71837303 C3.46191534,4.79396759 3.5496722,4.90685277 3.56244052,5.01973794 C3.57520884,5.13262312 3.56244052,5.24571096 3.56244052,5.24571096 C3.56244052,5.24571096 3.68789433,5.10769515 3.70066265,5.06979654 C3.71302562,5.03250593 3.90130767,4.80653291 3.93900462,4.76883696 C3.97649889,4.73093835 4.06486377,4.54286394 4.06486377,4.50516799 C4.06486377,4.4748491 4.05669204,4.38849701 4.05342335,4.35516893 L4.05209545,4.34181889 L4.16498361,4.11584587 L4.36603398,3.91480081 C4.36603398,3.91480081 4.54175038,4.02768599 4.60437595,4.0655846 C4.66720419,4.10328055 4.70490113,4.21616573 4.70490113,4.27919497 C4.70490113,4.32631491 4.6836966,4.38038883 4.67309433,4.4044808 L4.66720419,4.41721078 L4.69213281,4.50537066 L5.03140531,4.27939764 L5.03140531,4.48003736 C5.03140531,4.51753064 5.00607134,4.63061848 4.98073737,4.70601038 C4.95580875,4.78119961 5.15685912,4.99480998 5.15685912,4.99480998 C5.15685912,4.99480998 5.24481865,5.25827628 5.24481865,5.29597223 C5.24481865,5.33387084 5.26974728,5.57220651 5.33277819,5.66016372 C5.3958091,5.7477156 5.34514117,5.83587547 5.30784956,5.9611233 C5.27451006,6.07089248 5.11672378,5.93099884 5.07779814,5.89431029 L5.06910225,5.88593407 L4.88061753,5.7730489 C4.88061753,5.7730489 5.05633393,5.49681461 5.0816679,5.43398803 C5.10659652,5.37136412 4.81758662,5.54707588 4.76732403,5.59713447 C4.71746678,5.64719307 4.44122519,5.59713447 4.44122519,5.59713447 C4.44122519,5.59713447 4.44122519,5.697657 4.50385076,5.73535295 C4.56688167,5.7730489 4.59221564,5.83587547 4.66740686,5.9611233 C4.74259808,6.08657379 4.67976984,6.04908051 4.59221564,6.08677646 C4.50385076,6.12447241 4.32853971,6.16216835 4.25294315,6.21242962 C4.17775193,6.26248821 4.05229812,6.21242962 4.05229812,6.21242962 C4.05229812,6.21242962 3.90151035,6.35044543 3.87658172,6.41306934 C3.85124775,6.47589592 3.80098516,6.47569325 3.63783441,6.56365046 C3.47468366,6.65160767 3.5123806,6.82731943 3.47468366,6.83988474 C3.43678404,6.85245006 3.36159282,7.01579917 3.34922985,7.07842308 C3.3366642,7.14104699 3.28640161,7.20407624 3.24870466,7.2290042 C3.21121039,7.2543375 3.03549399,7.36722268 2.99779705,7.39235331 C2.95969476,7.41768661 2.97246308,7.69392089 2.97246308,7.73141417 C2.97246308,7.76890745 3.02292834,8.04493907 3.01016002,8.08283768 C2.99799972,8.12033096 2.93496881,8.0700697 2.88470621,8.01980844 C2.84282072,7.97792405 2.76631214,7.79670652 2.74197276,7.73746414 L2.73432378,7.71864619 L2.48301082,7.55549975 L2.3713186,7.61087376 C2.29004664,7.65085635 2.1906134,7.6990165 2.16907229,7.70608087 C2.13137535,7.71844352 1.93073032,7.7312115 1.83020514,7.78147277 C1.7300853,7.83153136 1.64172042,7.90692326 1.59145783,7.98231516 C1.54160058,8.05750438 1.55416623,8.20808551 1.5665292,8.25834677 C1.57929752,8.30860803 1.65448874,8.58463965 1.75501392,8.67279953 C1.85513376,8.76035141 1.99315322,8.73522077 2.08111276,8.66003155 C2.16907229,8.58463965 2.20656656,8.53437839 2.26959748,8.48431979 C2.33242572,8.43405853 2.33242572,8.50945042 2.41997991,8.55950902 C2.50834479,8.60997295 2.34478869,8.69772749 2.34478869,8.77311939 C2.34478869,8.84830862 2.37032533,8.97396178 2.4078196,8.97396178 C2.43906483,8.97396178 2.64497369,8.98254695 2.71274206,8.98540867 L2.73432378,8.98632442 L2.73432378,9.46340109 C2.73432378,9.46340109 3.12345353,9.50109704 3.13885658,9.50109704 C3.15385429,9.50109704 3.31173558,9.50109704 3.34943252,9.48832906 C3.38692679,9.47616908 3.44955236,9.40077718 3.57541151,9.3379506 C3.70086532,9.27492136 3.81375348,9.3379506 3.91427866,9.3880092 C4.01439851,9.43827046 4.10256071,9.45083578 4.14025766,9.45083578 C4.1779546,9.45083578 4.44142787,9.43827046 4.47912481,9.43827046 C4.51682175,9.43827046 4.5293874,9.52622767 4.56708435,9.6014169 C4.60478129,9.6768088 4.85609425,9.76476601 4.95621409,9.77733132 C5.05673928,9.78989664 5.28271827,9.99073903 5.32041521,10.0661309 C5.35790949,10.1413202 5.44586902,10.2292774 5.47079765,10.2667706 C5.49613161,10.3046693 5.91059533,10.4552504 5.97322089,10.4552504 C6.03604913,10.4552504 6.18683691,10.518077 6.27479645,10.5934689 C6.36255331,10.6686581 6.47544147,10.756818 6.47544147,10.8322099 C6.47544147,10.9073991 6.48800712,11.1080388 6.47544147,11.1708654 C6.46287582,11.233692 6.37491629,11.67287 6.37491629,11.7107686 C6.37491629,11.7482619 6.31249339,12.0242935 6.27479645,12.0621921 C6.23669416,12.0998881 6.01112051,12.2630345 5.94342815,12.3007305 C5.87614113,12.3382238 5.92275563,12.6772846 5.94099609,12.7275459 C5.95964189,12.7778071 5.86033273,12.9283883 5.86033273,12.9660842 C5.86033273,13.0037802 5.79730182,13.1292307 5.74703923,13.1669266 C5.69677664,13.2048252 5.68441366,13.4557262 5.65907969,13.5813794 C5.63415107,13.7066272 5.59645413,13.8322803 5.59645413,13.8951069 C5.59645413,13.9579335 5.58368581,14.0079921 5.58368581,14.0456881 C5.58368581,14.083384 5.69637129,14.3219223 5.70913961,14.3596183 C5.72190793,14.3975169 5.73406824,14.53533 5.77176518,14.6232872 C5.80986747,14.7112445 5.89762433,14.8492603 5.93532128,14.9120868 C5.97301822,14.9751161 5.80986747,14.9120868 5.80986747,14.9120868 C5.80986747,14.9120868 5.65907969,14.7992017 5.54619153,14.7363751 C5.4331007,14.6733458 5.32021254,14.4978368 5.26994995,14.4224449 C5.21968736,14.3472556 5.10700187,14.1587759 5.06930492,14.083384 C5.03181065,14.0081948 4.91851715,13.7445258 4.91851715,13.7445258 C4.91851715,13.7445258 4.78029502,13.3931023 4.78029502,13.3554063 C4.78029502,13.3177104 4.71787212,13.1294333 4.65484121,12.9788522 C4.59221564,12.8280684 4.5293874,12.6902553 4.51661908,12.6523567 C4.50385076,12.6148634 4.39116527,12.2129759 4.37839695,12.1629173 C4.36583131,12.1126561 4.21544887,11.8739151 4.17775193,11.8364218 C4.14005499,11.7989285 3.96433859,11.66071 3.96433859,11.66071 C3.96433859,11.66071 3.6759367,11.434737 3.63783441,11.3970411 C3.60552274,11.364904 3.43488141,11.166597 3.38678616,11.1105937 L3.37415847,11.0958788 L3.21100772,10.9576603 L3.21100772,10.5809035 L3.08555391,10.3425679 L3.21100772,10.0786962 L3.21100772,9.89041917 L3.03529132,9.77733132 L2.73412111,9.6267502 L2.58333333,9.43827046 L1.93052765,9.07407897 L1.51606394,8.96119379 L1.07160481,8.73319411 C1.27974869,12.5581168 4.45683092,15.6062192 8.33333333,15.6062192 C11.6632301,15.6062192 14.4753005,13.356217 15.3346287,10.2979813 C15.3180096,10.2533947 15.3001745,10.2077947 15.2760565,10.1540881 C15.1129058,9.78989664 15.1629657,9.73963538 15.1506027,9.66444615 C15.1380371,9.58905425 15.0375119,9.33815327 14.8490272,9.17480416 C14.6609478,9.01145506 14.4852314,8.78548204 14.3972719,8.71049548 C14.3093123,8.63530625 14.0330707,8.55950902 13.8573543,8.53458105 C13.6816379,8.50945042 13.3046685,8.42149321 13.2671742,8.42149321 C13.22968,8.42149321 12.953641,8.30840537 12.966004,8.34610132 C12.9785697,8.38379726 13.2544059,8.62213293 13.3676994,8.71049548 C13.4803849,8.79885802 13.4803849,8.73522077 13.5184872,8.71049548 C13.5559815,8.68556751 13.7067692,8.7856847 13.7444662,8.84830862 C13.7821631,8.91093253 13.8573543,8.94883114 13.8573543,8.99909241 C13.8573543,9.049151 13.8320204,9.1245429 13.7069719,9.22506543 C13.5815181,9.32558795 13.5561841,9.32558795 13.4805876,9.40077718 C13.4053964,9.47596641 13.0288323,9.68937411 12.953641,9.71450475 C12.8780445,9.73963538 12.8654788,9.75199803 12.7779246,9.81482461 C12.6897624,9.87765118 12.9157414,9.94047776 12.991338,9.94047776 C13.0477314,9.94047776 13.0546476,9.95461374 13.0704845,9.96168173 L13.0914578,9.9656084 L13.2422456,9.9656084 C13.2797399,9.9656084 13.2921029,10.0661309 13.2921029,10.0661309 C13.2921029,10.0661309 13.2422456,10.1664508 13.1421258,10.3170319 C13.0416006,10.467613 12.966004,10.5432076 12.7902876,10.7815433 C12.6145712,11.0198789 12.5896426,11.0452122 12.53938,11.1078361 C12.4891174,11.1704601 12.5018857,11.1830254 12.4011579,11.3338092 C12.30043,11.4845929 12.3883896,11.4217664 12.3883896,11.4217664 C12.3883896,11.4217664 12.4260865,11.6854353 12.4260865,11.8611471 C12.4260865,12.0368588 12.3883896,12.0743521 12.338127,12.1623093 C12.2878644,12.2504692 12.1502503,12.426181 12.0872193,12.4764422 C12.0241884,12.5265008 12.0872193,12.4764422 12.0241884,12.614458 C11.9615629,12.7526765 12.0241884,12.614458 12.0241884,12.6523567 C12.0241884,12.6898499 11.9364316,12.915823 11.8235434,13.0789694 C11.7108579,13.2421158 11.4970392,13.4806542 11.3715854,13.5309154 C11.2461316,13.580974 11.0077896,13.7943817 10.9068591,13.7694538 C10.8067393,13.7443231 10.8067393,13.7694538 10.8067393,13.7694538 C10.8067393,13.7694538 10.5181347,13.4054649 10.5467114,13.355001 C10.5752881,13.3049424 10.5181347,12.9910122 10.5467114,12.8027351 C10.5752881,12.6142554 10.3547813,12.5390661 10.3547813,12.5390661 C10.3547813,12.5390661 10.3298527,12.4511089 10.3298527,12.3380211 C10.3298527,12.247713 10.3617613,12.1974841 10.3745248,12.1810049 L10.3797099,12.1748747 L10.4050439,11.7231313 C10.4050439,11.7231313 10.3045187,11.4594623 10.2921557,11.3086785 C10.2795901,11.1580974 10.2165592,11.0829082 10.0911054,10.9195591 C9.96565155,10.75621 10.0661767,10.8192392 10.116034,10.7310793 C10.1662966,10.6431221 10.116034,10.6179915 10.116034,10.6179915 C10.116034,10.6179915 9.91538895,10.5049036 9.71433859,10.454845 C9.51349089,10.4045838 9.71433859,10.454845 9.55159318,10.4799757 C9.41140224,10.5013425 9.474611,10.5322388 9.49553169,10.5406302 L9.50133058,10.5428023 L9.25001762,10.6179915 L8.94884741,10.6179915 L8.54715202,10.4799757 C8.54715202,10.4799757 8.35886997,10.2039441 8.32157837,10.1409148 C8.28307074,10.0780882 8.14545663,9.80205662 8.13268831,9.75179536 C8.12032533,9.7015341 8.13268831,9.50089438 8.13268831,9.50089438 C8.13268831,9.50089438 8.13268831,9.50089438 8.1707906,9.4127345 C8.20828487,9.32497995 8.1829509,9.14906553 8.25226464,9.0738763 C8.32097036,8.99848441 8.34630432,8.8351353 8.48452645,8.70988748 C8.62234324,8.58463965 8.50945508,8.65942355 8.54715202,8.52140774 C8.58484897,8.38318926 8.69814247,8.30800004 8.73563674,8.23260814 C8.76241836,8.17875679 8.75094053,8.20183594 8.77883005,8.14622676 L8.83616193,8.03176575 C8.92394412,7.85585133 8.86757288,7.86272299 8.85210847,7.86718957 C8.8485249,7.86841665 8.8485249,7.86841665 8.79866765,7.8307207 C8.74799972,7.79282209 8.50965775,7.55468908 8.54735469,7.51679047 C8.58505164,7.47929719 8.74799972,7.22819354 8.88662719,7.08997506 C9.02444397,6.95175659 9.10004053,7.11510569 9.14989778,7.08997506 C9.20016038,7.06484443 9.28852525,6.91426331 9.28852525,6.82650876 C9.28852525,6.73875422 9.08747489,6.82650876 9.08747489,6.82650876 C9.08747489,6.82650876 9.1626661,6.68849296 9.17543442,6.65079701 C9.18516267,6.62047812 9.30799796,6.59846044 9.35674294,6.59086613 L9.37648479,6.58797043 L9.52686722,6.34922943 C9.52686722,6.34922943 9.60205844,6.22377894 9.63975538,6.17351767 C9.677655,6.12325641 9.84080575,5.85979011 9.86613972,5.82209416 C9.89106834,5.78439821 9.94092559,5.68407835 9.94092559,5.68407835 C9.94092559,5.68407835 10.0039565,5.80952884 10.0292905,5.8905954 C10.0542191,5.97166195 10.1547443,5.88492074 10.1547443,5.88492074 C10.1547443,5.88492074 10.317895,5.89768872 10.3681576,5.88492074 C10.4184202,5.87215276 10.6567622,5.78460088 10.7070248,5.69867033 C10.7489103,5.62723043 10.8083888,5.46430918 10.8270515,5.41198653 L10.8328839,5.39548142 L11.1589828,5.18207372 C11.1589828,5.18207372 10.8705809,5.13201512 10.769853,5.13201512 C10.6691252,5.13201512 10.6942565,4.61703984 10.6814881,4.54164794 C10.6693278,4.46645871 10.5311057,4.60447452 10.4559145,4.69243173 C10.3803179,4.78018628 10.4559145,5.11904447 10.4559145,5.11904447 C10.4559145,5.11904447 10.3930863,5.60888912 10.2801981,5.68407835 C10.1669046,5.75947025 10.0917134,5.52093191 10.0418561,5.44533735 C10.0013218,5.38518597 9.98504318,5.4053229 9.98015311,5.41578373 L9.97841987,5.42040939 L9.71474393,5.53349723 C9.71474393,5.53349723 9.52666455,5.13201512 9.60185577,5.05642056 C9.67745233,4.98123133 9.77757217,4.93097007 9.94072292,4.62352516 C10.104279,4.31587759 10.078945,4.26561633 10.1354905,4.17765912 C10.1920359,4.0897019 10.3801153,3.97681673 10.4557118,3.83880092 C10.530903,3.70058245 10.8823358,3.67524915 10.8823358,3.67524915 C10.8823358,3.67524915 11.008195,3.76340902 11.1585774,3.83880092 C11.3093652,3.91399015 11.4597476,3.86372889 11.5100102,3.92675813 C11.5602728,3.98938204 11.5100102,3.92675813 11.7609178,4.20278975 C11.992899,4.45758816 11.7966073,4.15633717 11.7650358,4.10848318 L11.7609178,4.10226722 L11.7609178,4.02707799 C11.7609178,3.9516861 11.8237461,3.97681673 11.8665098,4.06497661 C11.9090709,4.15252848 12.112148,3.88906218 12.2005128,3.87649687 C12.2661785,3.86707288 12.2968453,3.87178487 12.3080745,3.87472987 L12.313401,3.87649687 L12.313401,3.71314776 C12.313401,3.71314776 12.087422,3.6128279 12.0497251,3.6128279 C12.0120281,3.6128279 11.8989373,3.33659362 11.886169,3.19837514 C11.873806,3.06035934 11.8488774,2.98476477 11.886169,2.88444491 C11.9242713,2.78392239 12.0120281,2.93470618 12.075059,2.99935675 C12.1374819,3.06421 12.1877445,3.24883907 12.2005128,3.29889767 C12.2126732,3.34915893 12.3383296,3.48717474 12.5266117,3.53743601 C12.7148937,3.58769727 12.7525907,3.42434816 12.7525907,3.42434816 C12.7525907,3.42434816 12.7148937,3.18560716 12.6895598,3.0852873 C12.67213,3.01374607 12.7746819,2.82810366 12.8673029,2.65218924 C11.7647686,1.7709958 10.4024092,1.20373259 8.91439322,1.08537542 Z M13.1139544,11.8923577 C13.1139544,11.8923577 12.966004,12.2877598 12.9469529,12.3631517 C12.9283071,12.438341 12.8340647,12.7208579 12.7779246,12.8716417 C12.7279154,13.0034002 12.6644063,12.9334423 12.5607856,12.8886407 L12.5138434,12.8716417 L12.5138434,12.5514288 L12.8140002,12.2125706 L13.1139544,11.8923577 Z M12.0870167,8.48371179 L11.9115027,8.48371179 C11.9240686,8.68455418 12.0622907,8.89816455 12.112148,8.99848441 C12.1628159,9.09900693 12.1557224,9.22445743 12.2280762,9.26215337 C12.3006327,9.29984932 12.4514205,9.58844625 12.4514205,9.58844625 C12.4514205,9.58844625 12.6399052,9.61357689 12.6399052,9.58844625 C12.6399052,9.56351829 12.6022082,9.36247323 12.5266117,9.24938539 C12.4514205,9.13650022 12.3186705,8.87303392 12.2280762,8.75974341 C12.1717335,8.69002617 12.1457915,8.60065029 12.1247136,8.54289038 C12.1119453,8.50722109 12.1012037,8.48371179 12.0870167,8.48371179 Z M4.2138275,8.75386608 C4.29449085,8.75386608 4.34110535,8.83533797 4.34110535,8.83533797 C4.34110535,8.83533797 4.3909626,8.92349785 4.34110535,8.94862848 C4.29043742,8.97375911 4.08350957,8.94862848 4.06486377,8.94862848 C4.06486377,8.94862848 3.97082408,8.94234582 3.93272179,8.89836721 C3.89502485,8.85438861 3.96433859,8.81669266 4.00041416,8.80412734 C4.03648973,8.79156203 4.13377216,8.75386608 4.2138275,8.75386608 Z M3.51866342,8.44013852 C3.55007754,8.45250117 3.95805576,8.6910395 3.99575271,8.70988748 C4.03324698,8.72873545 3.83260195,8.77899671 3.80726798,8.77899671 C3.78233936,8.77899671 3.57541151,8.66611154 3.50609778,8.61564761 C3.43739206,8.56558901 3.34943252,8.55302369 3.34943252,8.55302369 C3.34943252,8.55302369 3.29916993,8.58423432 3.28011878,8.60673029 C3.26106764,8.62922625 3.20492757,8.55322636 3.19256459,8.53417572 C3.17979627,8.51532775 3.31761306,8.44013852 3.31761306,8.44013852 C3.31761306,8.44013852 3.48745198,8.42737054 3.51866342,8.44013852 Z M10.0410454,7.17854027 C10.0410454,7.17854027 10.0031458,7.51739847 9.96544887,7.45457189 C9.92775193,7.39174531 9.82722675,7.30399077 9.80229812,7.26609215 C9.77696415,7.2283962 9.56355081,7.2537295 9.56355081,7.2537295 C9.56355081,7.2537295 9.50112791,7.40431063 9.438097,7.47949985 C9.38815868,7.53981337 9.30566318,7.62412259 9.27466251,7.65543373 L9.2623806,7.66777693 L9.2623806,7.8059954 C9.3756741,7.75573414 9.65151035,7.73080617 9.72670156,7.71803819 C9.78969869,7.70756709 9.94840193,7.71454782 9.99955309,7.7171656 L10.0157115,7.71803819 L10.1914279,7.98920581 C10.1914279,7.98920581 10.2919531,8.06966437 10.32965,8.06966437 C10.3619617,8.06966437 10.5695306,8.2263048 10.6281766,8.27105921 L10.6435885,8.2828694 L10.793971,8.13228828 C10.793971,8.13228828 10.7187797,7.93853922 10.8821332,7.99792047 C11.0454866,8.05709905 11.5600701,8.18295488 11.5977671,8.17038956 C11.6352614,8.15782424 11.9491999,7.98211249 11.9745339,7.91928591 C11.9994625,7.85645933 11.886169,7.71276886 11.886169,7.71276886 C11.886169,7.71276886 11.221203,7.51739847 11.221203,7.47990519 C11.221203,7.44241191 11.2710602,7.37938266 11.1456064,7.37938266 C11.020558,7.37938266 11.0957492,7.5425291 11.020558,7.60535568 C10.9449614,7.66797959 10.8570019,7.64305163 10.7818107,7.56745707 C10.7062141,7.49226784 10.6725706,7.34148405 10.6202813,7.45457189 C10.567992,7.5672544 10.5807603,7.61771833 10.5430633,7.63028364 C10.5053664,7.64305163 10.3922756,7.69311022 10.32965,7.64305163 C10.2670244,7.5925877 10.3545786,7.45457189 10.304316,7.37917999 C10.2544588,7.30399077 10.0410454,7.17854027 10.0410454,7.17854027 Z M11.7730781,6.72639157 C11.7730781,6.7515222 11.6226957,6.87717536 11.5724331,6.90210332 C11.5221705,6.92723396 11.5221705,6.92723396 11.5221705,6.92723396 C11.5221705,6.92723396 11.3967167,7.19070026 11.4340083,7.17854027 C11.4717053,7.16577229 11.622493,7.17854027 11.622493,7.17854027 C11.7104526,7.11551103 11.7104526,7.11551103 11.7104526,7.11551103 C11.7104526,7.11551103 11.7479468,7.10294571 11.7856438,7.11551103 C11.8170579,7.12598212 12.014128,7.20626053 12.0789455,7.23272914 L12.0995823,7.24116419 L12.2250361,7.11003904 C12.2250361,7.11003904 12.2503701,7.00262585 12.1498449,6.93979927 C12.0493197,6.87717536 11.9250819,6.72639157 11.9250819,6.72639157 C11.9250819,6.72639157 11.7730781,6.70126094 11.7730781,6.72639157 Z M9.19914702,5.56511318 C9.21819816,5.62165711 9.2838638,5.8194595 9.265218,5.87580075 C9.24616686,5.93214201 9.44417715,6.176963 9.44417715,6.20553896 C9.44417715,6.23350692 9.26217793,6.36544274 9.26217793,6.36544274 C9.26217793,6.36544274 9.15253252,6.41225867 9.08646153,6.48785323 C9.08646153,6.48785323 9.02079588,6.57256778 8.97174932,6.48785323 C8.92270276,6.40293602 8.99505657,6.2523549 8.99505657,6.2523549 C8.99505657,6.2523549 9.0959871,6.06428049 9.12415847,6.02638188 C9.15273519,5.9888886 9.04856191,5.8664781 8.9948539,5.8664781 C8.94094322,5.8664781 8.98249092,5.49924661 9.08625886,5.4806013 C9.19002679,5.46155066 9.18050122,5.50877193 9.19914702,5.56511318 Z M8.83231116,5.89464873 C8.83231116,5.89464873 8.92655352,5.98868593 8.95431955,6.00084591 C8.97685665,6.0105739 8.92740474,6.12964445 8.89717585,6.19130692 L8.87953368,6.22418427 L8.74718903,6.33727211 L8.66247224,6.22418427 L8.66247224,5.94166733 L8.83231116,5.89464873 Z M8.10958859,4.436503 L8.17038525,4.44132808 C8.25048113,4.45154247 8.25456699,4.44541384 8.2529975,4.44255381 L8.25185929,4.44132808 L8.54674668,4.50435733 L8.54674668,4.62636249 C8.54674668,4.62636249 8.48412111,4.79315693 8.40852455,4.80572224 C8.33333333,4.81808489 8.06986007,4.80551957 8.06986007,4.80551957 C8.06986007,4.80551957 7.95697191,4.64217047 7.95697191,4.44132808 C7.95697191,4.44132808 7.99761165,4.43680457 8.05183688,4.43589987 L8.10958859,4.436503 Z M10.3422156,2.13174196 L10.4551038,2.20713386 C10.4551038,2.20713386 10.304316,2.42033889 10.2919531,2.45823751 C10.2793874,2.49593345 10.2416905,2.60881863 10.2163565,2.67853587 C10.1914279,2.74805044 10.0659741,2.7970957 10.0282771,2.75939976 C10.0030107,2.73440423 9.95549544,2.6980594 9.91563666,2.6584719 L9.86532903,2.59767198 L9.8146611,2.39561359 L9.86532903,2.33258435 C9.86532903,2.33258435 10.0410454,2.29509107 10.0909027,2.28252575 C10.1244111,2.27414887 10.2249363,2.20992615 10.2882299,2.16804176 L10.3422156,2.13174196 Z" id="Mask" fill="#FFFFFF" fill-rule="nonzero"/>
    </g>
</svg>