<?xml version="1.0" encoding="UTF-8"?>
<svg width="20px" height="14px" viewBox="0 0 20 14" version="1.1" xmlns="http://www.w3.org/2000/svg" xmlns:xlink="http://www.w3.org/1999/xlink">
    <title>youtube [#168]</title>
    <g id="Symbols" stroke="none" stroke-width="1" fill="none" fill-rule="evenodd">
        <g id="Footer" transform="translate(-481.000000, -172.000000)" fill="#FFFFFF">
            <path d="M488.988432,181.585884 L488.988432,175.974246 C490.980638,176.91168 492.523602,177.817201 494.348463,178.793528 C492.843351,179.628243 490.980638,180.56468 488.988432,181.585884 M500.090998,173.182887 C499.747343,172.730126 499.161634,172.37809 498.538073,172.26141 C496.705243,171.913362 485.270974,171.912365 483.439141,172.26141 C482.939097,172.355153 482.493839,172.581533 482.111335,172.93357 C480.49964,174.429475 481.004664,182.451514 481.393145,183.750957 C481.556505,184.313418 481.767679,184.719306 482.033639,184.985578 C482.376298,185.337614 482.845463,185.57995 483.384355,185.688653 C484.893451,186.000798 492.668037,186.175321 498.506198,185.735525 C499.044094,185.641781 499.520231,185.391466 499.895762,185.024471 C501.385932,183.53455 501.28433,175.061744 500.090998,173.182887" id="youtube-[#168]"></path>
        </g>
    </g>
</svg>